<svg id="Capa_1" data-name="Capa 1" xmlns="http://www.w3.org/2000/svg" xmlns:xlink="http://www.w3.org/1999/xlink" viewBox="0 0 399.86 108.43"><defs><style>.cls-1{fill:url(#Degradado_sin_nombre_86);}.cls-2{fill:url(#Degradado_sin_nombre_86-2);}.cls-3{fill:url(#Degradado_sin_nombre_86-3);}.cls-4{fill:url(#Degradado_sin_nombre_3);}</style><linearGradient id="Degradado_sin_nombre_86" x1="78.57" y1="366.46" x2="119.07" y2="366.46" gradientUnits="userSpaceOnUse"><stop offset="0" stop-color="#6d83fb"/><stop offset="0.6" stop-color="#bb3ad7"/><stop offset="0.82" stop-color="#df5f62"/><stop offset="1" stop-color="#6c7cfa"/></linearGradient><linearGradient id="Degradado_sin_nombre_86-2" x1="105.52" y1="382.02" x2="199.85" y2="382.02" xlink:href="#Degradado_sin_nombre_86"/><linearGradient id="Degradado_sin_nombre_86-3" x1="78.57" y1="381.99" x2="199.85" y2="381.99" xlink:href="#Degradado_sin_nombre_86"/><linearGradient id="Degradado_sin_nombre_3" x1="214.92" y1="380.91" x2="478.43" y2="380.91" gradientUnits="userSpaceOnUse"><stop offset="0" stop-color="#6d83fb"/><stop offset="0.77" stop-color="#6d81fb"/><stop offset="1" stop-color="#6c7cfa"/></linearGradient></defs><path class="cls-1" d="M115.59,356.76l.14-.08a6.67,6.67,0,0,0,0-11.55L88.57,329.44a6.67,6.67,0,0,0-10,5.78v62.49a6.67,6.67,0,0,0,10,5.77l.15-.08a6.67,6.67,0,0,0,3.33-5.78V358.56a6.66,6.66,0,0,1,10-5.77l6.88,4A6.66,6.66,0,0,0,115.59,356.76Z" transform="translate(-78.57 -327.01)"/><path class="cls-2" d="M196.48,329.51a6.72,6.72,0,0,0-6.73,0l-80.86,46.69a6.71,6.71,0,0,0-3.37,5.83v31.13a6.74,6.74,0,0,0,3.37,5.83l27,15.56a6.67,6.67,0,0,0,6.72,0l27-15.56a6.75,6.75,0,0,0,3.36-5.83V382a6.75,6.75,0,0,0-3.36-5.83h0a6.72,6.72,0,0,0-6.73,0c-8.77,5.07-18.19,10.5-27,15.56a6.75,6.75,0,0,0-3.36,5.83h0a6.74,6.74,0,0,0,3.37,5.83h0a6.74,6.74,0,0,0,6.73,0l6.74-3.89a6.73,6.73,0,0,1,10.1,5.83h0a6.72,6.72,0,0,1-3.36,5.83L142.58,419a6.74,6.74,0,0,1-6.73,0l-13.49-7.78a6.75,6.75,0,0,1-3.36-5.83V389.8a6.73,6.73,0,0,1,3.36-5.83l53.92-31.13a6.73,6.73,0,0,1,10.1,5.83v38.88a6.71,6.71,0,0,0,3.35,5.82h0a6.74,6.74,0,0,0,10.12-5.83V335.34A6.71,6.71,0,0,0,196.48,329.51Z" transform="translate(-78.57 -327.01)"/><path class="cls-3" d="M115.59,356.76l.14-.08a6.67,6.67,0,0,0,0-11.55L88.57,329.44a6.67,6.67,0,0,0-10,5.78v62.49a6.67,6.67,0,0,0,10,5.77l.15-.08a6.67,6.67,0,0,0,3.33-5.78V358.56a6.66,6.66,0,0,1,10-5.77l6.88,4A6.66,6.66,0,0,0,115.59,356.76Z" transform="translate(-78.57 -327.01)"/><path class="cls-3" d="M196.48,329.51a6.72,6.72,0,0,0-6.73,0l-80.86,46.69a6.71,6.71,0,0,0-3.37,5.83v31.13a6.74,6.74,0,0,0,3.37,5.83l27,15.56a6.67,6.67,0,0,0,6.72,0l27-15.56a6.75,6.75,0,0,0,3.36-5.83V382a6.75,6.75,0,0,0-3.36-5.83h0a6.72,6.72,0,0,0-6.73,0c-8.77,5.07-18.19,10.5-27,15.56a6.75,6.75,0,0,0-3.36,5.83h0a6.74,6.74,0,0,0,3.37,5.83h0a6.74,6.74,0,0,0,6.73,0l6.74-3.89a6.73,6.73,0,0,1,10.1,5.83h0a6.72,6.72,0,0,1-3.36,5.83L142.58,419a6.74,6.74,0,0,1-6.73,0l-13.49-7.78a6.75,6.75,0,0,1-3.36-5.83V389.8a6.73,6.73,0,0,1,3.36-5.83l53.92-31.13a6.73,6.73,0,0,1,10.1,5.83v38.88a6.71,6.71,0,0,0,3.35,5.82h0a6.74,6.74,0,0,0,10.12-5.83V335.34A6.71,6.71,0,0,0,196.48,329.51Z" transform="translate(-78.57 -327.01)"/><path class="cls-4" d="M216.4,371.74V327.89h10.21l18.11,29.82h-5.39l17.73-29.82h10.21l.06,43.85h-11.4l-.13-26.5h1.95l-13.22,22.18H239l-13.59-22.18h2.38v26.5Z" transform="translate(-78.57 -327.01)"/><path class="cls-4" d="M288.38,362.09h22.93v9.65H276.17V327.89H310.5v9.65H288.38Zm-.88-17.22h20.37v9.2H287.5Z" transform="translate(-78.57 -327.01)"/><path class="cls-4" d="M318.27,371.74V327.89h10.21l18.1,29.82H341.2l17.73-29.82h10.21l.06,43.85H357.8l-.13-26.5h1.95L346.4,367.42h-5.52l-13.59-22.18h2.38v26.5Z" transform="translate(-78.57 -327.01)"/><path class="cls-4" d="M400.09,372.62a27.09,27.09,0,0,1-9.68-1.69,22.42,22.42,0,0,1-12.85-12.06,22.29,22.29,0,0,1-1.84-9.12,21.88,21.88,0,0,1,1.84-9,22.56,22.56,0,0,1,12.82-12,28.74,28.74,0,0,1,19.42,0,23.18,23.18,0,0,1,7.7,4.76,22.33,22.33,0,0,1,5.11,7.21,22,22,0,0,1,1.85,9.08,22.76,22.76,0,0,1-1.82,9.18,21.63,21.63,0,0,1-5.1,7.24,23.67,23.67,0,0,1-7.74,4.76A27.06,27.06,0,0,1,400.09,372.62Zm0-10.28a12.34,12.34,0,0,0,4.66-.87,10.69,10.69,0,0,0,3.76-2.54A12,12,0,0,0,411,355a15.11,15.11,0,0,0,0-10.33,12,12,0,0,0-2.51-3.95,10.69,10.69,0,0,0-3.76-2.54,12.8,12.8,0,0,0-9.33,0,11.09,11.09,0,0,0-3.79,2.54,11.4,11.4,0,0,0-2.51,3.95,15.77,15.77,0,0,0,0,10.33,11.4,11.4,0,0,0,2.51,3.95,11.09,11.09,0,0,0,3.79,2.54A12.39,12.39,0,0,0,400.09,362.34Z" transform="translate(-78.57 -327.01)"/><path class="cls-4" d="M439.62,372.62a22,22,0,0,1-8.68-1.66,17.22,17.22,0,0,1-6.55-4.79l6.77-8.09a14,14,0,0,0,3.63,3.42,7.45,7.45,0,0,0,3.95,1.16c3.64,0,5.45-2.11,5.45-6.33V337.54h-15.1v-9.65h27.44v27.75q0,8.52-4.32,12.75T439.62,372.62Z" transform="translate(-78.57 -327.01)"/><path class="cls-4" d="M465,371.74V327.89H477.4v43.85Z" transform="translate(-78.57 -327.01)"/><path class="cls-4" d="M239.11,434.82a27.19,27.19,0,0,1-9.65-1.66,23.18,23.18,0,0,1-7.64-4.7,21.32,21.32,0,0,1-5.08-7.24,24.21,24.21,0,0,1,0-18.42,21.13,21.13,0,0,1,5.11-7.23,23.05,23.05,0,0,1,7.73-4.7,27.91,27.91,0,0,1,9.84-1.66,28.24,28.24,0,0,1,11,2.06,20.74,20.74,0,0,1,8.08,6l-7.89,7.14a15.19,15.19,0,0,0-4.86-3.7,13.79,13.79,0,0,0-5.8-1.19,14.27,14.27,0,0,0-5.13.88,10.71,10.71,0,0,0-3.95,2.54,11.66,11.66,0,0,0-2.54,4,14.12,14.12,0,0,0-.9,5.14,13.94,13.94,0,0,0,.9,5.08,11.66,11.66,0,0,0,2.54,4,11.09,11.09,0,0,0,3.92,2.57,13.42,13.42,0,0,0,5,.91,16.32,16.32,0,0,0,5.39-.91,17.56,17.56,0,0,0,5.32-3.1l7,8.71a29.28,29.28,0,0,1-8.74,4.14A34.37,34.37,0,0,1,239.11,434.82Zm7.39-7.15v-16.6h11v18.17Z" transform="translate(-78.57 -327.01)"/><path class="cls-4" d="M283.09,433.94l19.36-43.86h12.21l19.42,43.86h-12.9L306,396.16h4.88l-15.16,37.78Zm10.59-8.58,3.19-9.09H318.3l3.19,9.09Z" transform="translate(-78.57 -327.01)"/><path class="cls-4" d="M360.58,433.94V390.08H370.8l18.1,29.83h-5.39l17.74-29.83h10.21l.06,43.86h-11.4l-.13-26.5h1.94l-13.22,22.18H383.2l-13.59-22.18H372v26.5Z" transform="translate(-78.57 -327.01)"/><path class="cls-4" d="M455.5,424.29h22.93v9.65H443.28V390.08h34.34v9.65H455.5Zm-.88-17.23H475v9.21H454.62Z" transform="translate(-78.57 -327.01)"/></svg>