<svg id="Capa_1" data-name="Capa 1" xmlns="http://www.w3.org/2000/svg" xmlns:xlink="http://www.w3.org/1999/xlink" viewBox="0 0 595.28 595.28"><defs><style>.cls-1{fill:#3c3c3b;}.cls-2{fill:url(#Degradado_sin_nombre_86);}.cls-3{fill:url(#Degradado_sin_nombre_86-2);}.cls-4{fill:url(#Degradado_sin_nombre_86-3);}</style><linearGradient id="Degradado_sin_nombre_86" x1="109.82" y1="251.53" x2="235.25" y2="251.53" gradientUnits="userSpaceOnUse"><stop offset="0" stop-color="#6d83fb"/><stop offset="0.6" stop-color="#bb3ad7"/><stop offset="0.82" stop-color="#df5f62"/><stop offset="1" stop-color="#6c7cfa"/></linearGradient><linearGradient id="Degradado_sin_nombre_86-2" x1="193.31" y1="299.73" x2="485.45" y2="299.73" xlink:href="#Degradado_sin_nombre_86"/><linearGradient id="Degradado_sin_nombre_86-3" x1="120.14" y1="315.21" x2="495.77" y2="315.21" gradientTransform="translate(-10.32 -15.57)" xlink:href="#Degradado_sin_nombre_86"/></defs><rect class="cls-1" width="595.28" height="595.28"/><path class="cls-2" d="M224.49,221.48l.43-.25a20.64,20.64,0,0,0,0-35.76l-84.14-48.59a20.65,20.65,0,0,0-31,17.89V348.3a20.66,20.66,0,0,0,31,17.88l.44-.25a20.64,20.64,0,0,0,10.32-17.88v-121a20.65,20.65,0,0,1,31-17.89l21.3,12.3A20.64,20.64,0,0,0,224.49,221.48Z" transform="translate(0)"/><path class="cls-3" d="M475,137.07a20.87,20.87,0,0,0-20.85,0c-82.7,47.75-167.71,96.84-250.46,144.6a20.85,20.85,0,0,0-10.41,18.06v96.41a20.81,20.81,0,0,0,10.42,18.05c27.17,15.69,56.32,32.54,83.5,48.22a20.81,20.81,0,0,0,20.83,0l83.51-48.21A20.83,20.83,0,0,0,402,396.13v-96.4a20.88,20.88,0,0,0-10.42-18.06h0a20.84,20.84,0,0,0-20.86,0c-27.16,15.7-56.34,32.52-83.5,48.21a20.83,20.83,0,0,0-10.41,18.05h0A20.86,20.86,0,0,0,287.21,366h0a20.87,20.87,0,0,0,20.85,0L329,354A20.85,20.85,0,0,1,360.24,372v0a20.86,20.86,0,0,1-10.42,18.06l-41.75,24.1a20.83,20.83,0,0,1-20.84,0l-41.78-24.12A20.83,20.83,0,0,1,235,372V323.82a20.81,20.81,0,0,1,10.42-18.05l167-96.42a20.85,20.85,0,0,1,31.28,18.06V347.82a20.87,20.87,0,0,0,10.38,18h0a20.86,20.86,0,0,0,31.33-18V155.13A20.86,20.86,0,0,0,475,137.07Z" transform="translate(0)"/><path class="cls-4" d="M224.49,221.48l.43-.25a20.64,20.64,0,0,0,0-35.76l-84.14-48.59a20.65,20.65,0,0,0-31,17.89V348.3a20.66,20.66,0,0,0,31,17.88l.44-.25a20.64,20.64,0,0,0,10.32-17.88v-121a20.65,20.65,0,0,1,31-17.89l21.3,12.3A20.64,20.64,0,0,0,224.49,221.48Z" transform="translate(0)"/><path class="cls-4" d="M475,137.07a20.87,20.87,0,0,0-20.85,0c-82.7,47.75-167.71,96.84-250.46,144.6a20.85,20.85,0,0,0-10.41,18.06v96.41a20.81,20.81,0,0,0,10.42,18.05c27.17,15.69,56.32,32.54,83.5,48.22a20.81,20.81,0,0,0,20.83,0l83.51-48.21A20.83,20.83,0,0,0,402,396.13v-96.4a20.88,20.88,0,0,0-10.42-18.06h0a20.84,20.84,0,0,0-20.86,0c-27.16,15.7-56.34,32.52-83.5,48.21a20.83,20.83,0,0,0-10.41,18.05h0A20.86,20.86,0,0,0,287.21,366h0a20.87,20.87,0,0,0,20.85,0L329,354A20.85,20.85,0,0,1,360.24,372v0a20.86,20.86,0,0,1-10.42,18.06l-41.75,24.1a20.83,20.83,0,0,1-20.84,0l-41.78-24.12A20.83,20.83,0,0,1,235,372V323.82a20.81,20.81,0,0,1,10.42-18.05l167-96.42a20.85,20.85,0,0,1,31.28,18.06V347.82a20.87,20.87,0,0,0,10.38,18h0a20.86,20.86,0,0,0,31.33-18V155.13A20.86,20.86,0,0,0,475,137.07Z" transform="translate(0)"/></svg>