<svg id="Capa_1" data-name="Capa 1" xmlns="http://www.w3.org/2000/svg" xmlns:xlink="http://www.w3.org/1999/xlink" viewBox="0 0 595.28 841.89"><defs><style>.cls-1{fill:#3c3c3b;}.cls-2{fill:url(#Degradado_sin_nombre_86);}.cls-3{fill:url(#Degradado_sin_nombre_86-2);}.cls-4{fill:url(#Degradado_sin_nombre_86-3);}.cls-5{fill:url(#Degradado_sin_nombre_3);}</style><linearGradient id="Degradado_sin_nombre_86" x1="110.97" y1="253.7" x2="236.4" y2="253.7" gradientUnits="userSpaceOnUse"><stop offset="0" stop-color="#6d83fb"/><stop offset="0.6" stop-color="#bb3ad7"/><stop offset="0.82" stop-color="#df5f62"/><stop offset="1" stop-color="#6c7cfa"/></linearGradient><linearGradient id="Degradado_sin_nombre_86-2" x1="194.45" y1="301.9" x2="486.6" y2="301.9" xlink:href="#Degradado_sin_nombre_86"/><linearGradient id="Degradado_sin_nombre_86-3" x1="105.97" y1="300.8" x2="481.6" y2="300.8" gradientTransform="translate(5 1)" xlink:href="#Degradado_sin_nombre_86"/><linearGradient id="Degradado_sin_nombre_3" x1="71.07" y1="603.49" x2="541.33" y2="603.49" gradientTransform="translate(-8 1)" gradientUnits="userSpaceOnUse"><stop offset="0" stop-color="#6d83fb"/><stop offset="0.77" stop-color="#6d81fb"/><stop offset="1" stop-color="#6c7cfa"/></linearGradient></defs><rect class="cls-1" width="595.28" height="841.89"/><path class="cls-2" d="M225.63,223.64l.43-.24a20.65,20.65,0,0,0,0-35.77l-84.14-48.58a20.65,20.65,0,0,0-31,17.89V350.47a20.66,20.66,0,0,0,31,17.88l.43-.26a20.6,20.6,0,0,0,10.32-17.88v-121a20.66,20.66,0,0,1,31-17.89l21.3,12.3A20.63,20.63,0,0,0,225.63,223.64Z"/><path class="cls-3" d="M476.17,139.24a20.8,20.8,0,0,0-20.84,0L204.87,283.83a20.83,20.83,0,0,0-10.42,18.05v96.41a20.86,20.86,0,0,0,10.42,18.06c27.18,15.68,56.33,32.53,83.5,48.21a20.81,20.81,0,0,0,20.83,0c27.17-15.7,56.34-32.53,83.51-48.21a20.84,20.84,0,0,0,10.42-18.06v-96.4a20.83,20.83,0,0,0-10.42-18.05h0a20.84,20.84,0,0,0-20.86,0c-27.17,15.7-56.34,32.52-83.51,48.22a20.82,20.82,0,0,0-10.41,18h0a20.87,20.87,0,0,0,10.43,18.06h0a20.85,20.85,0,0,0,20.84,0l20.9-12.06a20.85,20.85,0,0,1,31.28,18.06v0A20.83,20.83,0,0,1,351,392.26l-41.75,24.11a20.83,20.83,0,0,1-20.83,0c-13.32-7.68-28.48-16.43-41.78-24.12a20.86,20.86,0,0,1-10.42-18.06V326a20.85,20.85,0,0,1,10.41-18.06c55.21-31.87,111.55-64.39,167-96.42a20.85,20.85,0,0,1,31.27,18.07V350a20.86,20.86,0,0,0,10.38,18h0a20.85,20.85,0,0,0,31.33-18V157.3A20.86,20.86,0,0,0,476.17,139.24Z"/><path class="cls-4" d="M225.63,223.64l.43-.24a20.65,20.65,0,0,0,0-35.77l-84.14-48.58a20.65,20.65,0,0,0-31,17.89V350.47a20.66,20.66,0,0,0,31,17.88l.43-.26a20.6,20.6,0,0,0,10.32-17.88v-121a20.66,20.66,0,0,1,31-17.89l21.3,12.3A20.63,20.63,0,0,0,225.63,223.64Z"/><path class="cls-4" d="M476.17,139.24a20.8,20.8,0,0,0-20.84,0L204.87,283.83a20.83,20.83,0,0,0-10.42,18.05v96.41a20.86,20.86,0,0,0,10.42,18.06c27.18,15.68,56.33,32.53,83.5,48.21a20.81,20.81,0,0,0,20.83,0c27.17-15.7,56.34-32.53,83.51-48.21a20.84,20.84,0,0,0,10.42-18.06v-96.4a20.83,20.83,0,0,0-10.42-18.05h0a20.84,20.84,0,0,0-20.86,0c-27.17,15.7-56.34,32.52-83.51,48.22a20.82,20.82,0,0,0-10.41,18h0a20.87,20.87,0,0,0,10.43,18.06h0a20.85,20.85,0,0,0,20.84,0l20.9-12.06a20.85,20.85,0,0,1,31.28,18.06v0A20.83,20.83,0,0,1,351,392.26l-41.75,24.11a20.83,20.83,0,0,1-20.83,0c-13.32-7.68-28.48-16.43-41.78-24.12a20.86,20.86,0,0,1-10.42-18.06V326a20.85,20.85,0,0,1,10.41-18.06c55.21-31.87,111.55-64.39,167-96.42a20.85,20.85,0,0,1,31.27,18.07V350a20.86,20.86,0,0,0,10.38,18h0a20.85,20.85,0,0,0,31.33-18V157.3A20.86,20.86,0,0,0,476.17,139.24Z"/><path class="cls-5" d="M65.7,588.12V509.86H83.92l32.31,53.22h-9.61l31.64-53.22h18.22l.12,78.26H136.25L136,540.83h3.47L115.9,580.41h-9.84L81.8,540.83H86v47.29Z"/><path class="cls-5" d="M194.16,570.91h40.92v17.21H172.36V509.86h61.27v17.22H194.16Zm-1.56-30.75h36.33v16.43H192.6Z"/><path class="cls-5" d="M247.49,588.12V509.86h18.23L298,563.08h-9.61l31.64-53.22h18.22l.11,78.26H318l-.22-47.29h3.47L297.7,580.41h-9.84l-24.27-39.58h4.25v47.29Z"/><path class="cls-5" d="M393.51,589.69a48.56,48.56,0,0,1-17.27-3,40,40,0,0,1-22.92-21.52,39.66,39.66,0,0,1-3.3-16.27,39,39,0,0,1,3.3-16.1,40.32,40.32,0,0,1,22.86-21.47,51.23,51.23,0,0,1,34.66,0,41.11,41.11,0,0,1,13.76,8.5,39.88,39.88,0,0,1,9.11,12.86,39.25,39.25,0,0,1,3.3,16.21,40.59,40.59,0,0,1-3.24,16.38,38.52,38.52,0,0,1-9.12,12.91,41.47,41.47,0,0,1-13.81,8.5A48.38,48.38,0,0,1,393.51,589.69Zm0-18.34a22,22,0,0,0,8.33-1.56,19.19,19.19,0,0,0,6.71-4.53,21.57,21.57,0,0,0,4.48-7,27.08,27.08,0,0,0,0-18.45,21.72,21.72,0,0,0-4.48-7,19.17,19.17,0,0,0-6.71-4.52,22.88,22.88,0,0,0-16.66,0,19.83,19.83,0,0,0-6.76,4.52,20.3,20.3,0,0,0-4.47,7,27.89,27.89,0,0,0,0,18.45,20.17,20.17,0,0,0,4.47,7,19.86,19.86,0,0,0,6.76,4.53A22,22,0,0,0,393.51,571.35Z"/><path class="cls-5" d="M464.07,589.69a39.38,39.38,0,0,1-15.49-3,30.61,30.61,0,0,1-11.68-8.56L449,563.75a25.22,25.22,0,0,0,6.49,6.09,13.18,13.18,0,0,0,7,2.07q9.72,0,9.73-11.29V527.08h-27V509.86h49v49.53q0,15.21-7.71,22.75T464.07,589.69Z"/><path class="cls-5" d="M509.35,588.12V509.86h22.13v78.26Z"/><path class="cls-5" d="M106.22,700.69a48.31,48.31,0,0,1-17.21-3,41,41,0,0,1-13.64-8.39,38.09,38.09,0,0,1-9.06-12.91,43.3,43.3,0,0,1,0-32.87,37.85,37.85,0,0,1,9.11-12.92,41.46,41.46,0,0,1,13.81-8.38,49.72,49.72,0,0,1,17.55-3A50,50,0,0,1,126.46,623a36.94,36.94,0,0,1,14.42,10.62L126.8,646.35a26.91,26.91,0,0,0-8.67-6.6,24.64,24.64,0,0,0-10.34-2.12,25.62,25.62,0,0,0-9.17,1.57,19.26,19.26,0,0,0-7,4.52,21,21,0,0,0-4.53,7.1A25,25,0,0,0,85.43,660a24.65,24.65,0,0,0,1.62,9.06,20.87,20.87,0,0,0,4.53,7.1,20,20,0,0,0,7,4.58,24.18,24.18,0,0,0,9,1.62,29.25,29.25,0,0,0,9.61-1.62,31.6,31.6,0,0,0,9.51-5.53l12.41,15.54a52.75,52.75,0,0,1-15.6,7.38A61.4,61.4,0,0,1,106.22,700.69Zm13.2-12.75V658.31H139.1v32.43Z"/><path class="cls-5" d="M184.71,699.12l34.55-78.26h21.8l34.66,78.26h-23L225.63,631.7h8.72l-27,67.42Zm18.9-15.31,5.7-16.22h38.24l5.7,16.22Z"/><path class="cls-5" d="M323,699.12V620.86h18.22l32.32,53.22h-9.62l31.64-53.22h18.23l.11,78.26H393.57l-.22-47.29h3.46l-23.59,39.58h-9.84l-24.26-39.58h4.25v47.29Z"/><path class="cls-5" d="M492.41,681.91h40.92v17.21H470.6V620.86h61.28v17.22H492.41Zm-1.57-30.75h36.34v16.43H490.84Z"/></svg>