<svg xmlns="http://www.w3.org/2000/svg" xmlns:xlink="http://www.w3.org/1999/xlink" viewBox="0 0 46.57 67.56"><defs><style>.cls-1{fill:url(#Degradado_sin_nombre_86);}.cls-2{fill:url(#Degradado_sin_nombre_86-2);}.cls-3{fill:#6d83fb;}</style><linearGradient id="Degradado_sin_nombre_86" x1="8.72" y1="19.39" x2="17.83" y2="19.39" gradientUnits="userSpaceOnUse"><stop offset="0" stop-color="#6d83fb"/><stop offset="0.6" stop-color="#bb3ad7"/><stop offset="0.82" stop-color="#df5f62"/><stop offset="1" stop-color="#6c7cfa"/></linearGradient><linearGradient id="Degradado_sin_nombre_86-2" x1="14.79" y1="22.89" x2="36" y2="22.89" xlink:href="#Degradado_sin_nombre_86"/></defs><g id="Capa_2" data-name="Capa 2"><g id="Capa_1-2" data-name="Capa 1"><rect width="46.57" height="67.56"/><path class="cls-1" d="M17.05,17.21l0,0a1.5,1.5,0,0,0,0-2.6L11,11.07a1.5,1.5,0,0,0-2.25,1.3V26.42A1.5,1.5,0,0,0,11,27.72l0,0a1.5,1.5,0,0,0,.74-1.3V17.62A1.5,1.5,0,0,1,14,16.32l1.55.89A1.49,1.49,0,0,0,17.05,17.21Z"/><path class="cls-2" d="M35.24,11.08a1.51,1.51,0,0,0-1.51,0L15.54,21.58a1.5,1.5,0,0,0-.75,1.31v7a1.5,1.5,0,0,0,.75,1.31l6.07,3.5a1.51,1.51,0,0,0,1.51,0l6.06-3.5a1.51,1.51,0,0,0,.76-1.31v-7a1.51,1.51,0,0,0-.76-1.31h0a1.51,1.51,0,0,0-1.51,0l-6.07,3.5a1.5,1.5,0,0,0-.75,1.31h0a1.52,1.52,0,0,0,.75,1.31h0a1.51,1.51,0,0,0,1.51,0l1.52-.87a1.51,1.51,0,0,1,2.27,1.31h0a1.51,1.51,0,0,1-.76,1.31l-3,1.75a1.51,1.51,0,0,1-1.51,0l-3-1.75a1.5,1.5,0,0,1-.75-1.31v-3.5a1.5,1.5,0,0,1,.75-1.31l12.13-7A1.51,1.51,0,0,1,33,17.64v8.74a1.52,1.52,0,0,0,.75,1.31h0A1.52,1.52,0,0,0,36,26.38v-14A1.51,1.51,0,0,0,35.24,11.08Z"/><path class="cls-3" d="M6.38,43.68V38H7.7l2.35,3.87h-.7L11.65,38H13v5.69H11.5V40.24h.25L10,43.12H9.31L7.55,40.24h.31v3.44Z"/><path class="cls-3" d="M15.71,42.43h3v1.25H14.13V38h4.44v1.25H15.71Zm-.11-2.24h2.63v1.2H15.6Z"/><path class="cls-3" d="M19.58,43.68V38h1.33l2.34,3.87h-.7L24.85,38h1.32v5.69H24.7V40.24h.25l-1.71,2.88h-.72l-1.76-2.88h.31v3.44Z"/><path class="cls-3" d="M30.19,43.79a3.48,3.48,0,0,1-1.26-.22,2.91,2.91,0,0,1-1-.62,3,3,0,0,1-.66-.94A2.9,2.9,0,0,1,27,40.83a2.78,2.78,0,0,1,.24-1.17,3,3,0,0,1,.66-.94,2.77,2.77,0,0,1,1-.62,3.69,3.69,0,0,1,2.51,0,2.89,2.89,0,0,1,1,.61,3,3,0,0,1,.66.94,2.86,2.86,0,0,1,.24,1.18A3.08,3.08,0,0,1,33.11,42a2.81,2.81,0,0,1-.66.93,3.06,3.06,0,0,1-1,.62A3.39,3.39,0,0,1,30.19,43.79Zm0-1.33a1.53,1.53,0,0,0,.6-.12,1.34,1.34,0,0,0,.49-.32,1.82,1.82,0,0,0,.32-.52,1.74,1.74,0,0,0,.12-.67,1.81,1.81,0,0,0-.12-.67,1.91,1.91,0,0,0-.32-.51,1.51,1.51,0,0,0-.49-.33,1.72,1.72,0,0,0-1.21,0,1.51,1.51,0,0,0-.49.33,1.72,1.72,0,0,0-.33.51,2,2,0,0,0-.11.67,2,2,0,0,0,.11.67,1.65,1.65,0,0,0,.33.52,1.34,1.34,0,0,0,.49.32A1.54,1.54,0,0,0,30.19,42.46Z"/><path class="cls-3" d="M35.31,43.79a2.78,2.78,0,0,1-1.13-.22,2.2,2.2,0,0,1-.85-.62l.88-1a1.91,1.91,0,0,0,.47.44,1,1,0,0,0,.51.15c.47,0,.71-.27.71-.82V39.24h-2V38H37.5v3.6a2,2,0,0,1-2.19,2.2Z"/><path class="cls-3" d="M38.6,43.68V38h1.6v5.69Z"/><path class="cls-3" d="M9.32,51.85a3.39,3.39,0,0,1-1.25-.22,2.92,2.92,0,0,1-1-.6,2.78,2.78,0,0,1-.65-.94,3,3,0,0,1-.24-1.2,2.91,2.91,0,0,1,.24-1.19,2.68,2.68,0,0,1,.66-.94,3.05,3.05,0,0,1,1-.61,3.68,3.68,0,0,1,1.27-.21,3.61,3.61,0,0,1,1.43.27,2.54,2.54,0,0,1,1.05.77l-1,.92a2.29,2.29,0,0,0-.63-.48,1.86,1.86,0,0,0-.75-.15,2,2,0,0,0-.67.11,1.5,1.5,0,0,0-.51.33,1.65,1.65,0,0,0-.33.52,1.88,1.88,0,0,0,0,1.32,1.65,1.65,0,0,0,.33.52,1.5,1.5,0,0,0,.51.33,1.67,1.67,0,0,0,.65.12,2.1,2.1,0,0,0,.7-.12,2.24,2.24,0,0,0,.69-.4l.9,1.13a3.79,3.79,0,0,1-1.13.53A4.28,4.28,0,0,1,9.32,51.85Zm1-.93V48.77h1.43v2.36Z"/><path class="cls-3" d="M15,51.74l2.51-5.69h1.59l2.51,5.69H20l-2-4.9h.64l-2,4.9Zm1.38-1.12.41-1.17h2.78L20,50.62Z"/><path class="cls-3" d="M25.07,51.74V46.05h1.32l2.35,3.87H28l2.29-3.87h1.33v5.69H30.19l0-3.44h.25l-1.71,2.87H28L26.23,48.3h.31v3.44Z"/><path class="cls-3" d="M37.37,50.49h3v1.25H35.78V46.05h4.45V47.3H37.37Zm-.12-2.24h2.64v1.2H37.25Z"/></g></g></svg>